<?xml version="1.0" standalone="no"?>
<!DOCTYPE svg PUBLIC "-//W3C//DTD SVG 20010904//EN"
 "http://www.w3.org/TR/2001/REC-SVG-20010904/DTD/svg10.dtd">
<svg version="1.0" xmlns="http://www.w3.org/2000/svg"
 width="572.000000pt" height="572.000000pt" viewBox="0 0 572.000000 572.000000"
 preserveAspectRatio="xMidYMid meet">
<metadata>
Created by potrace 1.14, written by Peter Selinger 2001-2017
</metadata>
<g transform="translate(0.000000,572.000000) scale(0.100000,-0.100000)"
fill="#000000" stroke="none">
<path d="M1078 4554 c-14 -14 -8 -23 35 -52 96 -66 333 -176 555 -258 56 -20
101 -38 99 -40 -1 -2 -45 8 -97 21 -172 44 -306 70 -420 81 -36 3 -77 7 -93 9
-70 7 -21 -35 116 -100 106 -50 294 -113 390 -130 20 -4 40 -12 44 -18 3 -5 2
-7 -4 -4 -26 16 -300 26 -397 14 -53 -6 -61 -11 -52 -26 11 -17 253 -87 366
-106 19 -3 42 -8 50 -10 16 -4 46 -9 164 -26 39 -5 71 -10 72 -12 1 -1 -86 -2
-194 -3 -109 0 -215 -4 -237 -8 -22 -5 -47 -10 -55 -11 -8 -2 -18 -4 -22 -4
-16 -2 -7 -29 10 -34 93 -26 175 -46 212 -51 25 -3 56 -8 70 -11 14 -3 52 -8
85 -11 33 -3 76 -7 95 -9 19 -2 63 -5 98 -6 99 -3 72 -14 -43 -17 -122 -3
-162 -7 -248 -22 -75 -14 -107 -29 -86 -40 16 -9 106 -29 164 -36 22 -3 51 -7
65 -10 23 -4 114 -11 238 -18 80 -5 75 -16 -9 -17 -41 0 -83 -2 -94 -4 -11 -2
-50 -6 -88 -10 -52 -5 -69 -11 -78 -26 -7 -15 -7 -24 2 -35 9 -12 6 -14 -22
-15 -19 -1 -47 -3 -64 -4 -16 -2 -68 -6 -115 -9 -47 -4 -101 -8 -120 -10 -19
-2 -66 -7 -105 -10 -78 -7 -143 -15 -195 -22 -19 -3 -55 -7 -80 -10 -93 -10
-237 -31 -462 -70 -16 -2 -56 -11 -90 -19 -35 -8 -74 -16 -88 -18 -109 -20
-450 -131 -450 -148 0 -10 20 -23 40 -26 50 -9 112 -10 155 -2 50 8 360 65
401 73 12 2 39 7 60 10 22 4 46 8 54 11 8 2 32 6 52 9 21 3 57 10 80 15 24 5
63 13 88 16 24 4 47 8 50 10 4 2 28 6 54 10 27 3 51 7 55 9 3 2 26 7 51 10 25
3 56 8 70 11 27 6 121 21 185 30 22 4 51 8 65 11 43 8 83 13 130 19 25 3 54 7
65 9 79 16 329 26 347 15 9 -6 3 -9 -17 -10 -16 -1 -34 -2 -40 -3 -5 -1 -35
-5 -65 -10 -30 -4 -66 -9 -80 -11 -37 -6 -190 -26 -225 -31 -59 -7 -130 -16
-145 -19 -8 -2 -42 -6 -75 -9 -33 -4 -71 -9 -85 -11 -14 -3 -43 -7 -65 -10
-59 -7 -101 -13 -185 -25 -72 -11 -94 -14 -150 -24 -14 -3 -81 -14 -150 -26
-69 -12 -163 -30 -210 -41 -47 -11 -95 -22 -108 -25 -37 -8 -156 -54 -166 -64
-20 -20 13 -31 100 -30 49 0 100 2 114 5 14 3 36 7 50 10 14 3 41 8 60 11 19
3 53 10 75 16 22 5 51 12 65 15 14 2 102 20 195 39 94 19 181 36 195 39 101
20 179 35 200 40 29 6 185 31 250 41 25 3 56 8 70 10 34 5 112 11 245 19 61 3
122 8 137 9 15 2 25 0 23 -4 -3 -5 -33 -11 -67 -15 -35 -4 -72 -9 -83 -11 -29
-6 -133 -22 -185 -29 -25 -3 -70 -10 -100 -15 -76 -13 -107 -18 -165 -25 -27
-3 -57 -8 -65 -10 -8 -2 -33 -6 -55 -10 -22 -3 -65 -10 -95 -15 -30 -5 -70
-12 -87 -15 -83 -13 -106 -17 -223 -41 -211 -43 -360 -88 -368 -112 -5 -16 56
-32 122 -32 34 0 108 12 166 26 185 45 563 121 695 140 17 3 43 6 58 9 16 2
40 6 55 9 15 3 49 8 76 11 27 3 52 8 55 10 3 1 33 6 66 10 33 3 115 14 182 23
68 10 119 15 115 11 -4 -4 -63 -17 -132 -29 -100 -17 -384 -68 -520 -94 -135
-25 -375 -80 -459 -105 -152 -44 -162 -63 -35 -68 57 -2 126 7 272 37 109 21
211 42 227 44 17 3 41 8 55 11 132 26 179 35 205 40 97 16 232 41 303 56 29 6
67 12 85 15 18 2 43 6 57 9 79 17 124 25 127 21 3 -3 -106 -33 -147 -41 -3 -1
-18 -4 -35 -8 -16 -4 -39 -9 -50 -11 -16 -4 -139 -31 -450 -101 -11 -3 -56
-12 -100 -21 -82 -17 -200 -68 -191 -83 11 -18 210 -3 311 24 55 15 109 28
120 31 11 2 31 6 45 9 14 3 34 7 45 9 28 6 251 54 302 66 84 20 75 8 -12 -15
-130 -35 -232 -71 -281 -100 -40 -24 -56 -43 -36 -46 60 -10 123 -2 247 33
180 50 299 85 353 105 24 8 45 13 48 11 2 -3 -47 -22 -108 -43 -240 -80 -409
-157 -422 -191 -7 -17 24 -26 65 -19 48 8 163 49 323 116 77 32 141 57 142 56
1 -1 -53 -30 -120 -65 -125 -64 -226 -142 -226 -175 0 -14 6 -16 28 -11 36 8
216 94 324 155 106 59 120 63 42 10 -114 -76 -224 -185 -224 -221 0 -13 43 -3
92 22 21 10 87 54 146 98 60 44 111 80 113 80 3 0 -32 -37 -76 -82 -71 -73
-122 -145 -110 -156 6 -7 171 108 247 172 l73 61 -49 -60 c-53 -65 -87 -130
-79 -152 7 -18 24 -16 53 7 37 29 44 24 21 -17 -23 -44 -61 -147 -67 -183 -3
-14 -7 -31 -9 -38 -5 -15 -13 -108 -20 -237 -9 -173 -23 -213 -124 -367 -44
-68 -84 -140 -87 -159 -7 -32 -5 -31 47 33 59 73 84 91 43 31 -36 -53 -102
-193 -105 -223 -2 -14 1 -36 5 -48 l8 -24 15 22 c23 33 133 256 133 271 0 7 3
10 6 6 4 -3 -13 -55 -36 -114 -82 -209 -109 -379 -66 -421 16 -16 18 -15 36 8
16 21 34 87 47 175 8 56 52 230 72 285 21 60 26 51 10 -19 -25 -109 -35 -282
-20 -339 7 -23 16 -40 20 -37 11 6 36 121 56 254 9 58 18 107 20 110 3 2 5
-20 6 -50 0 -30 2 -61 4 -69 2 -8 6 -31 10 -50 20 -109 43 6 51 255 3 94 7
175 9 181 4 12 11 16 165 94 185 93 476 204 589 226 7 1 52 21 98 43 157 76
256 173 332 327 36 72 80 203 95 279 4 17 9 41 11 55 3 14 12 67 20 119 10 68
20 100 35 116 37 40 114 74 176 80 126 12 195 27 272 62 39 18 64 23 90 19 21
-4 55 -9 77 -12 249 -34 599 -132 795 -222 54 -24 131 -38 159 -27 13 5 6 11
-104 81 -92 58 -261 133 -417 184 -117 39 -401 109 -479 119 -4 1 -37 44 -75
97 -114 161 -248 272 -385 318 -84 29 -229 24 -314 -9 -80 -32 -226 -162 -305
-272 -19 -26 -37 -50 -41 -53 -3 -3 -27 -35 -53 -72 -29 -41 -55 -69 -67 -69
-10 -1 -25 -2 -31 -3 -21 -4 -80 23 -95 42 -8 9 -33 55 -55 101 -46 95 -87
141 -209 231 -155 115 -336 211 -679 361 -91 39 -194 85 -230 101 -174 80
-239 109 -380 168 -252 105 -312 127 -460 166 -99 26 -230 41 -242 28z m1067
-954 c3 -5 1 -10 -4 -10 -6 0 -11 5 -11 10 0 6 2 10 4 10 3 0 8 -4 11 -10z
m562 -1972 c-3 -7 -5 -2 -5 12 0 14 2 19 5 13 2 -7 2 -19 0 -25z"/>
</g>
</svg>
